<svg width="168" height="27" fill="none" xmlns="http://www.w3.org/2000/svg"><path d="M12.793 3.86c.3-.92 1.602-.92 1.902 0l1.751 5.374a1 1 0 00.95.69h5.662c.969 0 1.371 1.241.586 1.81l-4.575 3.315a1 1 0 00-.364 1.12l1.749 5.366c.3.92-.753 1.688-1.538 1.12l-4.585-3.323a1 1 0 00-1.174 0l-4.585 3.322c-.784.569-1.838-.198-1.538-1.12l1.749-5.366a1 1 0 00-.364-1.12l-4.575-3.314c-.785-.569-.383-1.81.587-1.81h5.66a1 1 0 00.951-.69l1.751-5.374zm35.097 0c.3-.92 1.602-.92 1.902 0l1.75 5.374a1 1 0 00.952.69h5.66c.97 0 1.372 1.241.587 1.81l-4.575 3.315a1 1 0 00-.364 1.12l1.749 5.366c.3.92-.754 1.688-1.538 1.12l-4.585-3.323a1 1 0 00-1.174 0l-4.585 3.322c-.784.569-1.838-.198-1.538-1.12l1.749-5.366a1 1 0 00-.364-1.12l-4.575-3.314c-.785-.569-.383-1.81.587-1.81h5.66a1 1 0 00.951-.69L47.89 3.86zm35.097 0c.3-.92 1.602-.92 1.902 0l1.751 5.374a1 1 0 00.95.69h5.662c.969 0 1.371 1.241.586 1.81l-4.575 3.315a1 1 0 00-.364 1.12l1.749 5.366c.3.92-.753 1.688-1.537 1.12l-4.586-3.323a1 1 0 00-1.174 0l-4.585 3.322c-.784.569-1.838-.198-1.538-1.12l1.749-5.366a1 1 0 00-.364-1.12l-4.575-3.314c-.785-.569-.383-1.81.587-1.81h5.66a1 1 0 00.951-.69l1.751-5.374zm35.098 0c.299-.92 1.601-.92 1.901 0l1.751 5.374a1 1 0 00.951.69h5.661c.969 0 1.372 1.241.587 1.81l-4.575 3.315a.998.998 0 00-.364 1.12l1.748 5.366c.3.92-.753 1.688-1.537 1.12l-4.586-3.323a.999.999 0 00-1.173 0l-4.586 3.322c-.784.569-1.837-.198-1.537-1.12l1.748-5.366a.998.998 0 00-.364-1.12l-4.575-3.314c-.785-.569-.382-1.81.587-1.81h5.661a.999.999 0 00.95-.69l1.752-5.374z" fill="#070707"/><path d="M153.182 3.86c.3-.92 1.601-.92 1.901 0l1.751 5.374a1 1 0 00.951.69h5.661c.969 0 1.372 1.241.587 1.81l-4.575 3.315a.998.998 0 00-.364 1.12l1.748 5.366c.3.92-.753 1.688-1.537 1.12l-4.586-3.323a.999.999 0 00-1.173 0l-4.586 3.322c-.784.569-1.837-.198-1.537-1.12l1.748-5.366a.998.998 0 00-.364-1.12l-4.575-3.314c-.785-.569-.382-1.81.587-1.81h5.661a1 1 0 00.951-.69l1.751-5.374z" fill="#E5E5E5"/></svg>